<svg
  class="app-svg"
  style="fill: #310f8c"
  viewBox="0 0 159.6 28.4797"
  xmlns="http://www.w3.org/2000/svg"
>
  <g
    id="universytest-logotype"
    transform="matrix(1, 0, 0, 1, -518.7132123779297, -519.4967526367188)"
  >
    <g
      id="ut-01-u-group"
      transform="matrix(0.016658, 0, 0, -0.016658, 525.051636, 540.78186)"
    >
      <path
        d="M -380.252 34.81 L -379.855 -65.442 C -379.855 -65.442 -378.949 -160.763 -348.5 -225.639 C -304.949 -318.429 -271.612 -345.712 -212.494 -380.917 C -149.055 -418.695 -67.166 -430.114 3.539 -429.849 C 62.066 -429.629 150.345 -423.866 231.292 -370.142 C 305.613 -320.815 334.026 -257.792 351.869 -218.23 C 387.606 -138.993 382.053 34.655 381.124 34.81 L 380.5 424.361 L 189.539 423.769 L 189.124 34.81 C 189.124 34.81 192.429 -22.284 188.02 -65.442 C 183.611 -108.601 179.042 -149.527 159.186 -185.625 C 128.72 -241.012 63.941 -264.858 2.526 -264.836 C -61.934 -264.813 -126.272 -241.222 -156.475 -185.625 C -176.158 -149.393 -185.752 -65.442 -185.752 -65.442 L -185.811 34.81 L -186.539 423.769 L -380.5 424.361 L -380.252 34.81 Z"
        id="ut-01-u-path"
      />
    </g>
    <g
      id="ut-02-n-group"
      transform="matrix(0.016658, 0, 0, -0.016658, 540.969055, 540.709229)"
    >
      <path
        d="M -382.688 420 C -385 0 -382.796 -420.441 -382.796 -420.441 L -190.592 -420.441 L -190.424 89.588 L 228.31 -420.486 L 388.039 -420.365 L 387.779 420 L 196.003 419.833 L 196.863 -91.502 L -221.541 419.771 L -382.688 420 Z"
        id="ut-02-n-path"
      />
    </g>
    <g
      id="ut-03-i-group"
      transform="matrix(0.016658, 0, 0, -0.016658, 552.296997, 540.709229)"
    >
      <path
        d="M 2222.598 5280 L 2222.317 4439.885 L 2416.816 4439.864 L 2416.929 5280.124 L 2222.598 5280 Z"
        id="ut-03-i-path"
        transform="translate(-2315, -4860)"
      />
    </g>
    <g
      id="ut-04-v-group"
      transform="matrix(0.016658, 0, 0, -0.016658, 563.016846, 540.700928)"
    >
      <path
        d="M 2500.98 5280.347 L 2863.873 4440 L 3056.309 4439.564 L 3419.963 5279.63 L 3226.667 5280.185 L 2967.063 4679.739 L 2712.327 5279.572 L 2500.98 5280.347 Z"
        id="ut-04-v-path"
        transform="translate(-2958.5, -4860.5)"
      />
    </g>
    <g
      id="ut-05-e-group"
      transform="matrix(0.016658, 0, 0, -0.016658, 577.285095, 540.709229)"
    >
      <path
        d="M -324.577 419.962 L -325.898 -420.266 L 323.85 -420.395 L 324.749 -264.292 L -134.866 -264.268 L -134.22 -69.749 L 257.587 -68.587 L 257.587 81.542 L -133.446 80.509 C -132.8 170.509 -132.278 264.163 -132.278 264.163 L 306.943 264.079 L 309.369 419.99 C -7.8 420.509 -324.577 419.962 -324.577 419.962 Z"
        id="ut-05-e-path"
      />
    </g>
    <g
      id="ut-06-r-group"
      transform="matrix(0.016658, 0, 0, -0.016658, 591.361694, 540.692566)"
    >
      <path
        d="M -364.678 419.479 L -364.95 -421.505 L -170.518 -421.388 L -170.702 -187.35 L 7.946 -187.136 C 87 -306 170.091 -421.958 170.091 -421.958 L 268 -421 C 324 -421 378.224 -420.7 378.224 -420.7 L 191.965 -152.668 C 191.965 -152.668 237.145 -127.973 258.792 -114.077 C 306.397 -83.516 353.877 16.786 349.078 20.397 C 349.078 20.397 383.002 78.201 349.619 213.452 C 334.164 276.069 262.865 356.136 174 390 C 96.817 419.412 8.73 417.905 8.73 417.905 L -364.678 419.479 Z M 107.548 232.81 C 141.872 207.493 166.655 173.952 167.072 119.548 C 167.511 62.206 146.08 24.203 110.376 -3.402 C 66.64 -37.217 -52.867 -32.701 -52.867 -32.701 L -170 -32.041 L -170 261 L -44.738 261.167 C -44.738 261.167 65.994 263.46 107.548 232.81 Z"
        id="ut-06-r-path"
      />
    </g>
    <g id="ut-07-s-group">
      <g
        id="ut-07-s_cross-group"
        style="fill: #ffd700"
        transform="matrix(0.107984, -0.011193, 0.011193, 0.107984, 587.62561, 542.133972)"
      >
        <path
          d="M 178.057 -178.866 L 199.483 -189.207 L 210.559 -166.258 L 233.508 -177.334 L 243.849 -155.908 L 220.9 -144.832 L 231.976 -121.883 L 210.55 -111.542 L 199.474 -134.491 L 176.525 -123.415 L 166.184 -144.841 L 189.133 -155.917 L 178.057 -178.866 Z"
          id="ut-07-s_cross-path"
        />
      </g>
      <g
        id="ut-07-s_pathway-group"
        transform="matrix(0.002095, 0, 0, -0.002095, 568.204041, 582.65741)"
      >
        <path
          d="M 15515.941 26727.8 C 14835.941 26273.8 14418.941 25623.8 14293.941 24820.8 C 14267.941 24654.8 14267.941 24160.8 14293.941 23975.8 C 14349.941 23579.8 14451.941 23296.8 14636.941 23018.8 C 14739.941 22865.8 14815.941 22773.8 14969.941 22620.8 C 15192.941 22398.8 15396.941 22255.8 15742.941 22080.8 C 16159.148 21869.358 16525.817 21731.672 17247.22 21538.702 C 17247.22 22096.438 17247.22 22532.092 17247.22 22864.146 C 16835.352 22994.253 16536.755 23125.568 16317.941 23269.8 C 15934.941 23523.8 15747.941 23766.8 15662.941 24124.8 C 15637.941 24227.8 15635.941 24251.8 15636.941 24465.8 C 15636.941 24665.8 15639.941 24708.8 15658.941 24797.8 C 15750.397 25218.642 15985.308 25552.186 16362.579 25798.068 L 15716.322 26852.046 C 15648.124 26812.754 15581.366 26771.349 15515.941 26727.8 Z M 20101.941 20618.8 C 20342.123 20458.148 20507.247 20301.433 20615.497 20119.886 C 21163.88 20119.886 21654.322 20119.886 22091.175 20119.886 C 22066.76 20246.607 22034.284 20368.215 21993.941 20480.8 C 21822.941 20958.8 21418.941 21415.8 20905.941 21713.8 C 20789.941 21780.8 20480.941 21928.8 20295.941 22005.8 C 19969.071 22141.734 19474.269 22293.103 18774.667 22469.609 C 18774.667 21924.166 18774.667 21489.445 18774.667 21149.736 C 19421.236 20970.387 19814.216 20811.134 20101.941 20618.8 Z M 20044.941 18142.8 C 19704.809 17930.218 19307.441 17803.063 18774.667 17738.438 C 18774.667 17284.933 18774.667 16892.035 18774.667 16554.173 C 18994.872 16573.643 19208.566 16602.863 19410.941 16641.8 C 19889.941 16734.8 20280.941 16875.8 20685.941 17103.8 C 21315.802 17457.932 21760.193 17968.046 21986.299 18592.44 C 21415.07 18592.44 20931.843 18592.44 20527.574 18592.44 C 20406.224 18419.545 20244.148 18267.304 20044.941 18142.8 Z M 15627.941 18246.8 C 15240.941 18425.8 14882.941 18650.8 14596.941 18893.8 C 14559.941 18925.8 14527.941 18950.8 14525.941 18948.8 C 14518.941 18941.8 14010.941 17888.8 14011.941 17882.8 C 14012.941 17873.8 14150.941 17754.8 14254.941 17671.8 C 14833.941 17216.8 15789.941 16819.8 16725.941 16646.8 C 16895.494 16615.387 17070.033 16590.065 17247.22 16570.819 C 17247.22 17066.915 17247.22 17457.36 17247.22 17757.314 C 16678.794 17839.997 16181.511 17991.24 15627.941 18246.8 Z"
          id="ut-07-s_pathway-path"
        />
      </g>
    </g>
    <g
      id="ut-08-y-group"
      transform="matrix(0.001436, 0, 0, -0.001436, 612.380066, 548.344727)"
    >
      <path
        d="M 300.447 10190 L 4072.595 3917 L 4074.917 441.694 L 6331.612 441.612 L 6329.155 3891.324 L 10116.967 10188.033 L 7904 10185.584 L 5293.493 5861.324 L 2695.936 10192.021 L 300.447 10190 Z"
        id="ut-08-y-path"
      />
    </g>
    <g
      id="ut-09-t-group"
      transform="matrix(0.016658, 0, 0, -0.016658, 634.006042, 540.700745)"
    >
      <path
        d="M 6670.289 5279.422 L 6670.145 5121.156 L 6939.315 5121.199 L 6940.502 4438.996 L 7133.579 4439.046 L 7132.601 5121.012 L 7402.457 5121.156 L 7401.59 5279.566 L 6670.289 5279.422 Z"
        id="ut-09-t-path"
        transform="translate(-7035, -4860)"
      />
    </g>
    <g
      id="ut-10-e-group"
      transform="matrix(0.016658, 0, 0, -0.016658, 577.600159, 540.700745)"
    >
      <path
        d="M 3859.374 419.453 L 3858.053 -420.775 L 4507.801 -420.904 L 4508.7 -264.801 L 4049.085 -264.777 L 4049.731 -70.258 L 4441.538 -69.096 L 4441.538 81.033 L 4050.505 80 C 4051.151 170 4051.673 263.654 4051.673 263.654 L 4490.894 263.57 L 4493.32 419.481 C 4176.151 420 3859.374 419.453 3859.374 419.453 Z"
        id="ut-10-e-path"
      />
    </g>
    <g
      id="ut-11-s-group"
      transform="matrix(0.016658, 0, 0, -0.016658, 660.03125, 540.711182)"
    >
      <path
        d="M -163.678 404.983 C -196.578 391.34 -221.977 377.686 -255.224 350.044 C -288.471 322.402 -305.332 293.083 -318.52 258.369 C -332.243 222.246 -337.216 181.668 -332.61 143.302 C -327.712 102.507 -315.516 63.514 -282.23 30.014 C -271.254 18.967 -259.679 8.264 -245.883 -1.252 C -232.086 -10.767 -213.452 -21.02 -196.25 -28.966 C -173.705 -39.38 -150.104 -47.461 -126.425 -54.944 C -94.5 -65.033 -66.21 -71.154 -29.253 -80.375 C -0.779 -87.48 23.333 -91.915 43.458 -98.165 C 63.583 -104.415 81.223 -109.634 94.723 -115.884 C 108.223 -122.134 128.316 -134.939 128.316 -134.939 C 128.316 -134.939 144.543 -150.025 148.855 -159.899 C 151.799 -166.64 154.402 -174.125 154.355 -181.766 C 154.308 -189.406 155.331 -200.428 152.143 -208.741 C 148.956 -217.053 143.666 -227.927 137.744 -235.693 C 131.823 -243.458 122.597 -251.032 113.223 -256.013 C 93.121 -266.694 74.435 -271.327 47.685 -275.202 C 20.935 -279.077 -11.096 -280.022 -43.846 -277.022 C -76.596 -274.022 -110.487 -267.499 -143.487 -258.124 C -176.487 -248.749 -209.111 -233.922 -209.111 -233.922 L -237.079 -220.558 C -237.079 -220.558 -250.063 -213.22 -256.405 -209.302 C -262.453 -205.566 -267.321 -202.504 -272.777 -199.101 C -276.76 -196.616 -284.723 -191.64 -284.723 -191.64 C -339.565 -315.125 -351.084 -337.104 -351.084 -337.104 C -351.084 -337.104 -341.964 -343.83 -337.615 -346.44 C -333.158 -349.115 -334.128 -349.42 -323.847 -355.874 C -313.565 -362.327 -298.574 -370.178 -282.449 -377.491 C -266.324 -384.803 -249.065 -391.788 -230.034 -398.616 C -211.003 -405.444 -191.042 -410.64 -172.042 -415.64 C -152.792 -420.64 -125.957 -426.709 -98.332 -429.209 C -70.707 -431.709 -41.238 -434.856 -11.238 -434.856 C 18.762 -434.856 46.389 -433.804 74.825 -429.631 C 96.82 -426.403 120.973 -423.264 142.909 -415.851 C 171.299 -406.257 201.254 -395.685 226.097 -379.951 C 250.941 -364.217 274.338 -346.193 291.963 -325.256 C 309.588 -304.318 324.603 -278.991 333.947 -254.131 C 343.291 -229.272 347.807 -200.664 347.807 -173.164 C 347.807 -139.164 343.387 -111.452 331.027 -83.766 C 319.367 -57.647 300.499 -34.319 278.809 -15.673 C 250.63 8.551 215.616 24.186 181.168 38.123 C 131.081 58.387 76.835 66.267 24.747 80.625 C 1.755 86.963 -25.917 92.225 -45.073 98.428 C -64.229 104.631 -79.609 110.177 -92.234 116.489 C -104.859 122.802 -114.912 130.064 -122.319 137.142 C -129.725 144.22 -133.753 153.125 -137.253 161.625 C -141.253 170.875 -141.107 180.563 -140.419 190.188 C -139.732 199.813 -137.589 209.009 -132.839 218.009 C -128.089 227.009 -122.378 235.813 -114.19 243.188 C -106.003 250.563 -95.352 256.239 -84.887 260.711 C -67.79 268.017 -52.128 272.496 -31.112 275.522 C -10.097 278.549 13.31 279.732 37.372 278.357 C 61.435 276.982 86.153 273.563 109.794 268.488 C 133.435 263.413 155.997 256.682 175.747 248.682 C 185.247 244.682 193.752 241.032 201.936 237.432 C 210.121 233.832 217.985 230.281 226.203 226.48 C 230.625 224.435 237.084 221.019 242.438 218.113 C 247.792 215.208 252.041 212.814 252.041 212.814 C 281.84 286.269 312.006 359.968 312.006 359.968 L 298.696 368.3 C 298.696 368.3 286.677 374.896 280.503 377.992 C 271.704 382.404 267.947 384.583 253.822 390.645 C 239.697 396.708 223.752 402.298 206.963 407.31 C 190.174 412.323 172.524 416.87 155.041 420.507 C 134.718 424.735 118.188 427.785 93.576 430.512 C 68.965 433.239 41.097 434.664 14.034 434.664 C -13.028 434.664 -40.992 432.514 -68.251 428.921 C -86.394 426.53 -133.439 417.522 -163.678 404.983 Z"
        id="ut-11-s-path"
      />
    </g>
    <g
      id="ut-12-t-group"
      transform="matrix(0.016658, 0, 0, -0.016658, 672.312622, 540.440308)"
    >
      <path
        d="M -362.86 403.825 L -363.004 245.559 L -93.834 245.602 L -92.647 -436.601 L 100.43 -436.551 L 99.452 245.415 L 369.308 245.559 L 368.441 403.969 L -362.86 403.825 Z"
        id="ut-12-t-path"
      />
    </g>
  </g>
</svg>
